<?xml version="1.0" encoding="UTF-8" standalone="no"?>
<!-- Created with Inkscape (http://www.inkscape.org/) -->

<svg
   width="30.000008mm"
   height="29.999998mm"
   viewBox="0 0 30.000008 29.999998"
   version="1.1"
   id="svg5"
   xmlns="http://www.w3.org/2000/svg"
   xmlns:svg="http://www.w3.org/2000/svg">
  <defs
     id="defs2">
    <clipPath
       clipPathUnits="userSpaceOnUse"
       id="clipPath809">
      <rect
         style="fill:#008000;stroke-width:0.995915"
         id="rect811"
         width="19.306829"
         height="46.615635"
         x="29.478935"
         y="-8.1316223" />
    </clipPath>
    <clipPath
       clipPathUnits="userSpaceOnUse"
       id="clipPath813">
      <rect
         style="fill:#008000;stroke-width:0.995915"
         id="rect815"
         width="30.000002"
         height="30.000002"
         x="45.805973"
         y="-5.1202626" />
    </clipPath>
    <clipPath
       clipPathUnits="userSpaceOnUse"
       id="clipPath817">
      <rect
         style="fill:#008000;stroke-width:0.995915"
         id="rect819"
         width="30.000002"
         height="30.000002"
         x="49.961758"
         y="11.988059" />
    </clipPath>
  </defs>
  <g
     id="layer1"
     transform="translate(-49.961755,-11.988061)">
    <path
       id="rect611"
       style="stroke-width:0.947953"
       d="M 3.1399253,11.98806 H 83.139926 V 41.988058 H 3.1399253 Z"
       clip-path="url(#clipPath817)" />
    <g
       aria-label="mor://a"
       id="text113"
       style="font-size:22.5778px;font-family:'Zilla Slab';-inkscape-font-specification:'Zilla Slab';fill:none;stroke-width:0.264583"
       transform="translate(4.1557835,17.108322)"
       clip-path="url(#clipPath813)">
      <path
         d="m 20.852464,17.533609 h -4.267205 v -5.734761 q 0,-1.309512 -0.451556,-1.8739575 -0.428978,-0.564445 -1.286934,-0.564445 -1.038579,0 -1.512713,0.6773345 -0.451556,0.677334 -0.451556,1.73849 v 3.567293 h 1.354668 v 2.190046 H 9.9699637 v -5.734761 q 0,-1.309512 -0.451556,-1.8739575 -0.4289782,-0.564445 -1.2869347,-0.564445 -1.0611566,0 -1.5127126,0.6773345 -0.451556,0.677334 -0.451556,1.73849 v 3.567293 h 1.9416908 v 2.190046 H 2 V 15.343563 H 3.3546681 V 9.5636457 H 2.0225778 V 7.3510213 H 6.2672044 V 8.8863117 Q 7.2380498,7.147821 9.3603631,7.147821 q 1.1063119,0 2.0320019,0.5418673 0.92569,0.5418672 1.286935,1.6481794 0.903112,-2.1900467 3.318936,-2.1900467 1.377246,0 2.438403,0.8579565 1.061157,0.8579564 1.061157,2.6641805 v 4.673605 h 1.354668 z"
         style="font-weight:bold;fill:#ffffff"
         id="path922" />
      <path
         d="m 32.480019,12.453604 q 0,2.415825 -1.580446,3.860804 -1.580446,1.444979 -4.018849,1.444979 -2.348091,0 -3.838226,-1.354668 -1.467557,-1.377245 -1.467557,-3.838226 0,-2.235202 1.354668,-3.8382259 1.354668,-1.6030239 4.10916,-1.6030239 2.754491,0 4.086582,1.6030239 1.354668,1.5804459 1.354668,3.7253369 z m -3.002848,-0.09031 q 0,-1.557868 -0.72249,-2.280358 -0.722489,-0.7224895 -1.761068,-0.7224895 -1.12889,0 -1.783646,0.8128005 -0.632179,0.790223 -0.632179,2.235203 0,1.309512 0.587023,2.212624 0.609601,0.903112 1.806224,0.903112 1.12889,0 1.806224,-0.835379 0.699912,-0.857956 0.699912,-2.325513 z"
         style="font-weight:bold;fill:#ffffff"
         id="path924" />
      <path
         d="m 40.021019,7.2155544 q 0.428978,0 0.948268,0.1354669 0.541867,0.112889 1.061156,0.4289782 l 0.451556,3.5672925 -2.212624,0.248356 -0.383823,-1.7384909 q -0.451556,-0.2709336 -0.790223,-0.2709336 -0.496712,0 -0.880534,0.3838226 -0.361245,0.3838229 -0.361245,1.1288899 v 4.244627 h 1.806224 v 2.190046 h -6.073428 v -2.190046 h 1.354668 V 9.5636457 H 33.473457 V 7.3510213 h 4.154315 v 1.9416908 q 0.248356,-0.8805342 0.790223,-1.467557 0.564445,-0.6096007 1.603024,-0.6096007 z"
         style="fill:#ff0000"
         id="path926" />
      <path
         d="M 44.22049,11.008625 V 7.3510213 h 3.025425 v 3.6576037 z m 0,6.524984 v -3.657603 h 3.025425 v 3.657603 z"
         style="font-weight:bold;fill:#ffffff"
         id="path928" />
      <path
         d="M 56.638263,2.0000825 52.235592,17.533609 H 49.368211 L 53.770882,2.0000825 Z"
         style="font-weight:bold;fill:#ffffff"
         id="path930" />
      <path
         d="M 62.418147,2.0000825 58.015476,17.533609 h -2.86738 L 59.550767,2.0000825 Z"
         style="font-weight:bold;fill:#ffffff"
         id="path932" />
      <path
         d="m 63.501872,8.0735109 q 1.33209,-0.5418672 2.212625,-0.7224896 0.903112,-0.2032003 2.144891,-0.2032003 1.648179,0 2.844803,0.8579565 1.196623,0.8579564 1.196623,2.5964475 v 4.425249 q 0,0.790223 0.699912,0.790223 0.2032,0 0.428978,-0.06773 l 0.02258,1.535291 q -0.880534,0.474133 -1.828802,0.474133 -2.009424,0 -2.235202,-2.009424 v -0.02258 q -0.428978,0.767646 -1.241779,1.399824 -0.790223,0.632178 -2.032002,0.632178 -1.106313,0 -2.122314,-0.654756 -1.016001,-0.654756 -1.016001,-2.25778 0,-1.873957 1.490135,-2.483558 1.512713,-0.609601 3.251203,-0.609601 0.970846,0 1.670758,0.09031 v -0.338667 q 0,-0.790223 -0.225778,-1.5352909 -0.2032,-0.7450674 -1.44498,-0.7450674 -0.451556,0 -0.835378,0.067733 -0.361245,0.045156 -0.72249,0.225778 L 65.37583,10.963469 63.050316,10.715114 Z m 5.486406,5.3057831 v -0.135467 q -0.361245,-0.04515 -0.745068,-0.09031 -0.361245,-0.04516 -0.722489,-0.04516 -0.767646,0 -1.354668,0.293512 -0.587023,0.270933 -0.587023,1.106312 0,0.496712 0.270933,0.835379 0.270934,0.338667 0.92569,0.338667 0.767645,0 1.422402,-0.541867 0.677334,-0.564446 0.790223,-1.761069 z"
         style="font-weight:bold;fill:#ffffff"
         id="path934" />
    </g>
    <g
       aria-label="//-"
       transform="matrix(1.5538544,0,0,0.64356094,4.1557835,17.221254)"
       id="text113-0"
       style="font-size:35.0828px;font-family:'Zilla Slab';-inkscape-font-specification:'Zilla Slab';fill:none;stroke-width:0.411124"
       clip-path="url(#clipPath809)">
      <path
         d="M 20.82522,3.1077089 13.984074,27.244677 H 9.5285581 L 16.369704,3.1077089 Z"
         id="path915" />
      <path
         d="M 29.806369,3.1077089 22.965223,27.244677 H 18.509707 L 25.350853,3.1077089 Z"
         id="path917" />
      <path
         d="m 31.770988,17.14083 h 8.384789 v 3.788942 h -8.384789 z"
         style="fill:#ff0000"
         id="path919" />
    </g>
  </g>
</svg>
